<svg width="1591" height="329" viewBox="0 0 1591 329" fill="none" xmlns="http://www.w3.org/2000/svg">
<path d="M210.6 98.4C173 82.9333 142.333 75.2 118.6 75.2C109 75.2 100.733 77.0666 93.8 80.8C87.1333 84.5333 83.8 91.0667 83.8 100.4C83.8 105.733 85.6667 110.267 89.4 114C93.1333 117.733 99.1333 121.2 107.4 124.4C110.333 125.467 117.933 128 130.2 132C163.533 142.667 186.333 151.867 198.6 159.6C224.733 176.4 237.8 200 237.8 230.4C237.8 243.2 235.533 256.133 231 269.2C217.133 308.667 181.933 328.4 125.4 328.4C104.6 328.4 82.8667 325.733 60.2 320.4C37.5333 315.067 17.5333 307.6 0.2 298L19 228.8C39 237.6 57.6667 244.8 75 250.4C92.3333 255.733 108.733 258.4 124.2 258.4C143.133 258.4 154.733 251.733 159 238.4C159.533 235.733 159.8 233.733 159.8 232.4C159.8 226.8 157.667 221.733 153.4 217.2C149.4 212.667 143.4 208.8 135.4 205.6C121.8 200.533 112.2 197.2 106.6 195.6C97.2667 192.4 87.5333 189.067 77.4 185.6C67.5333 181.867 59 178.267 51.8 174.8C36.8667 167.6 25.4 157.467 17.4 144.4C9.66667 131.333 5.8 116.4 5.8 99.6C5.8 95.6 6.33333 89.6 7.4 81.6C11.6667 56.5333 23.6667 37.7333 43.4 25.2C63.1333 12.6667 86.3333 6.39999 113 6.39999C131.133 6.39999 150.733 8.66666 171.8 13.2C192.867 17.4667 212.6 23.3333 231 30.8L210.6 98.4ZM420.756 151.2C417.556 148.533 413.023 146.267 407.156 144.4C401.29 142.533 395.156 141.6 388.756 141.6C372.49 141.6 360.223 147.333 351.956 158.8C343.956 170.267 339.956 184.4 339.956 201.2C339.956 220.4 344.756 235.2 354.356 245.6C364.223 255.733 375.956 260.8 389.556 260.8C406.623 260.8 419.823 254.4 429.156 241.6C438.49 228.8 443.156 212 443.156 191.2V82.4H521.156V248C521.156 252.533 521.69 255.6 522.756 257.2C523.823 258.8 525.423 259.6 527.556 259.6C529.156 259.6 532.356 258.667 537.156 256.8C541.956 254.933 544.756 253.6 545.556 252.8L554.756 304.4C547.556 310 538.89 314.533 528.756 318C518.89 321.467 508.623 323.2 497.956 323.2H493.556C483.69 322.667 475.69 319.867 469.556 314.8C463.423 309.733 459.023 303.733 456.356 296.8C453.956 289.867 453.023 283.467 453.556 277.6C447.956 292.533 437.556 304.267 422.356 312.8C407.156 321.067 391.023 325.2 373.956 325.2C350.756 325.2 330.756 320 313.956 309.6C297.423 298.933 284.756 284.4 275.956 266C267.156 247.6 262.756 226.533 262.756 202.8C262.756 178 267.29 156.133 276.356 137.2C285.423 118.267 298.356 103.6 315.156 93.2C332.223 82.8 352.356 77.6 375.556 77.6C385.956 77.6 397.156 79.4667 409.156 83.2C421.156 86.6667 429.556 91.0667 434.356 96.4L420.756 151.2ZM715.369 262.8C725.502 262.8 738.302 261.333 753.769 258.4C769.235 255.467 780.569 252.4 787.769 249.2L800.969 307.2C772.969 318.667 741.369 324.4 706.169 324.4C659.769 324.4 624.835 314.267 601.369 294C577.902 273.733 566.169 245.733 566.169 210V202.8C566.169 183.6 570.969 164.667 580.569 146C590.169 127.333 604.569 111.6 623.769 98.8C642.969 85.7333 666.035 78.4 692.969 76.8C695.902 76.5333 700.169 76.4 705.769 76.4C728.435 76.4 747.769 80 763.769 87.2C779.769 94.4 791.769 104.4 799.769 117.2C807.769 129.733 811.769 144 811.769 160C811.769 188.533 801.369 209.2 780.569 222C760.035 234.533 734.969 240.8 705.369 240.8C680.835 240.8 658.435 235.6 638.169 225.2C639.769 237.467 647.235 246.8 660.569 253.2C673.902 259.6 692.169 262.8 715.369 262.8ZM698.169 186.4C708.302 186.4 717.369 184.533 725.369 180.8C733.369 177.067 737.369 170.8 737.369 162C737.369 155.067 734.702 149.467 729.369 145.2C724.302 140.667 716.035 138.4 704.569 138.4C691.502 138.4 679.635 141.333 668.969 147.2C658.569 152.8 650.569 161.2 644.969 172.4C652.169 176.667 660.569 180.133 670.169 182.8C679.769 185.2 689.102 186.4 698.169 186.4ZM924.584 82.4V116.8C933.918 104 945.118 94.1333 958.184 87.2C971.251 80 985.518 76.4 1000.98 76.4C1006.58 76.4 1012.05 76.8 1017.38 77.6C1022.72 78.4 1026.85 79.4667 1029.78 80.8L1019.78 160C1009.65 156.533 998.984 154.8 987.784 154.8C968.851 154.8 953.518 159.467 941.784 168.8C930.318 177.867 924.584 191.6 924.584 210V322H846.984V82.4H924.584ZM1170.4 324C1145.6 324 1123.2 318.933 1103.2 308.8C1083.46 298.4 1068 283.867 1056.8 265.2C1045.6 246.533 1040 225.067 1040 200.8C1040 176.267 1045.6 154.667 1056.8 136C1068 117.333 1083.46 102.933 1103.2 92.8C1123.2 82.6667 1145.6 77.6 1170.4 77.6C1195.2 77.6 1217.46 82.6667 1237.2 92.8C1257.2 102.933 1272.8 117.333 1284 136C1295.2 154.667 1300.8 176.267 1300.8 200.8C1300.8 225.067 1295.2 246.533 1284 265.2C1272.8 283.867 1257.2 298.4 1237.2 308.8C1217.46 318.933 1195.2 324 1170.4 324ZM1170.4 144C1154.66 144 1142 149.067 1132.4 159.2C1123.06 169.333 1118.4 183.2 1118.4 200.8C1118.4 218.4 1123.06 232.267 1132.4 242.4C1142 252.533 1154.66 257.6 1170.4 257.6C1186.13 257.6 1198.66 252.533 1208 242.4C1217.6 232.267 1222.4 218.4 1222.4 200.8C1222.4 183.2 1217.6 169.333 1208 159.2C1198.66 149.067 1186.13 144 1170.4 144ZM1418.48 0.399992V164C1467.54 152 1493.54 124.933 1496.48 82.8H1569.28C1567.94 106.8 1561.01 128.533 1548.48 148C1536.21 167.2 1519.94 183.733 1499.68 197.6L1590.48 322.4H1507.28L1439.28 226.4C1432.88 228.267 1425.94 229.867 1418.48 231.2V322.4H1340.88V0.399992H1418.48Z" fill="#FF8C4B"/>
</svg>
