<svg width="140" height="31" viewBox="0 0 140 31" fill="none" xmlns="http://www.w3.org/2000/svg">
<path d="M16.5568 10C16.4811 9.05303 16.1259 8.31439 15.4915 7.78409C14.8665 7.25379 13.9148 6.98864 12.6364 6.98864C11.822 6.98864 11.1544 7.08807 10.6335 7.28693C10.1222 7.47633 9.74337 7.73674 9.49716 8.06818C9.25095 8.39962 9.12311 8.77841 9.11364 9.20455C9.0947 9.55492 9.15625 9.87216 9.2983 10.1562C9.44981 10.4309 9.68655 10.6818 10.0085 10.9091C10.3305 11.1269 10.7424 11.3258 11.2443 11.5057C11.7462 11.6856 12.3428 11.8466 13.0341 11.9886L15.4205 12.5C17.0303 12.8409 18.4081 13.2907 19.554 13.8494C20.6998 14.4081 21.6373 15.0663 22.3665 15.8239C23.0956 16.572 23.6307 17.4148 23.9716 18.3523C24.322 19.2898 24.5019 20.3125 24.5114 21.4205C24.5019 23.3333 24.0237 24.9527 23.0767 26.2784C22.1297 27.6042 20.7756 28.6127 19.0142 29.304C17.2623 29.9953 15.1553 30.3409 12.6932 30.3409C10.1648 30.3409 7.95833 29.9669 6.07386 29.2188C4.19886 28.4706 2.74053 27.3201 1.69886 25.767C0.666667 24.2045 0.145833 22.2064 0.136364 19.7727H7.63636C7.68371 20.6629 7.90625 21.411 8.30398 22.017C8.7017 22.6231 9.26042 23.0824 9.98011 23.3949C10.7093 23.7074 11.5758 23.8636 12.5795 23.8636C13.4223 23.8636 14.1278 23.7595 14.696 23.5511C15.2642 23.3428 15.6951 23.054 15.9886 22.6847C16.2822 22.3153 16.4337 21.8939 16.4432 21.4205C16.4337 20.9754 16.2869 20.5871 16.0028 20.2557C15.7282 19.9148 15.2737 19.6117 14.6392 19.3466C14.0047 19.072 13.1477 18.8163 12.0682 18.5795L9.17045 17.9545C6.5947 17.3958 4.56345 16.4631 3.0767 15.1562C1.59943 13.84 0.86553 12.0455 0.875 9.77273C0.86553 7.92614 1.35795 6.31155 2.35227 4.92898C3.35606 3.53693 4.74337 2.45265 6.5142 1.67614C8.29451 0.89962 10.3352 0.511363 12.6364 0.511363C14.9848 0.511363 17.0161 0.904355 18.7301 1.69034C20.4441 2.47633 21.7652 3.58428 22.6932 5.0142C23.6307 6.43466 24.1042 8.09659 24.1136 10H16.5568ZM33.7088 30.3409C32.3168 30.3409 31.0857 30.1136 30.0156 29.6591C28.955 29.1951 28.1217 28.4943 27.5156 27.5568C26.9096 26.6193 26.6065 25.4261 26.6065 23.9773C26.6065 22.7841 26.8101 21.7661 27.2173 20.9233C27.6245 20.071 28.1927 19.375 28.9219 18.8352C29.651 18.2955 30.4986 17.8835 31.4645 17.5994C32.4399 17.3153 33.491 17.1307 34.6179 17.0455C35.8395 16.9508 36.8196 16.8371 37.5582 16.7045C38.3063 16.5625 38.8461 16.3684 39.1776 16.1222C39.509 15.8665 39.6747 15.5303 39.6747 15.1136V15.0568C39.6747 14.4886 39.4569 14.053 39.0213 13.75C38.5857 13.447 38.027 13.2955 37.3452 13.2955C36.5971 13.2955 35.9863 13.4612 35.5128 13.7926C35.0488 14.1146 34.7694 14.6117 34.6747 15.2841H27.4588C27.5535 13.9583 27.9749 12.7367 28.723 11.6193C29.4806 10.4924 30.5838 9.5928 32.0327 8.92045C33.4815 8.23864 35.2902 7.89773 37.4588 7.89773C39.0213 7.89773 40.4228 8.08239 41.6634 8.4517C42.9039 8.81155 43.9598 9.31818 44.831 9.97159C45.7022 10.6155 46.3651 11.3731 46.8196 12.2443C47.2836 13.1061 47.5156 14.0436 47.5156 15.0568V30H40.1861V26.9318H40.0156C39.58 27.7462 39.0497 28.4044 38.4247 28.9062C37.8092 29.4081 37.1037 29.7727 36.3082 30C35.5223 30.2273 34.6558 30.3409 33.7088 30.3409ZM36.2656 25.3977C36.8622 25.3977 37.4209 25.2746 37.9418 25.0284C38.4721 24.7822 38.9029 24.4271 39.2344 23.9631C39.5658 23.4991 39.7315 22.9356 39.7315 22.2727V20.4545C39.5232 20.5398 39.3007 20.6203 39.0639 20.696C38.8366 20.7718 38.5904 20.8428 38.3253 20.9091C38.0696 20.9754 37.795 21.0369 37.5014 21.0938C37.2173 21.1506 36.919 21.2027 36.6065 21.25C36.0005 21.3447 35.5033 21.5009 35.1151 21.7188C34.7363 21.9271 34.4522 22.1875 34.2628 22.5C34.0829 22.803 33.9929 23.1439 33.9929 23.5227C33.9929 24.1288 34.206 24.5928 34.6321 24.9148C35.0582 25.2367 35.6027 25.3977 36.2656 25.3977ZM61.7166 30.3977C59.3871 30.3977 57.3795 29.9527 55.6939 29.0625C54.0178 28.1629 52.7251 26.875 51.8161 25.1989C50.9164 23.5133 50.4666 21.4962 50.4666 19.1477C50.4666 16.8939 50.9212 14.9242 51.8303 13.2386C52.7393 11.553 54.0225 10.2415 55.6797 9.30398C57.3369 8.36648 59.2924 7.89773 61.5462 7.89773C63.1939 7.89773 64.6854 8.15341 66.0206 8.66477C67.3558 9.17614 68.4969 9.91951 69.4439 10.8949C70.3909 11.8608 71.12 13.035 71.6314 14.4176C72.1428 15.8002 72.3984 17.358 72.3984 19.0909V20.9091H52.9098V16.5909H65.1825C65.1731 15.9659 65.0121 15.4167 64.6996 14.9432C64.3965 14.4602 63.9846 14.0862 63.4638 13.821C62.9524 13.5464 62.37 13.4091 61.7166 13.4091C61.0821 13.4091 60.4998 13.5464 59.9695 13.821C59.4392 14.0862 59.013 14.4555 58.6911 14.929C58.3786 15.4025 58.2128 15.9564 58.1939 16.5909V21.25C58.1939 21.9508 58.3407 22.5758 58.6342 23.125C58.9278 23.6742 59.3492 24.1051 59.8984 24.4176C60.4477 24.7301 61.1106 24.8864 61.8871 24.8864C62.4268 24.8864 62.9193 24.8106 63.3643 24.6591C63.8189 24.5076 64.2071 24.2898 64.5291 24.0057C64.8511 23.7121 65.0878 23.3617 65.2393 22.9545H72.3984C72.1522 24.4697 71.5698 25.786 70.6513 26.9034C69.7327 28.0114 68.5159 28.8731 67.0007 29.4886C65.495 30.0947 63.7337 30.3977 61.7166 30.3977ZM75.598 30V8.18182H83.2116V12.3295H83.4389C83.8366 10.7955 84.4664 9.6733 85.3281 8.96307C86.1993 8.25284 87.2173 7.89773 88.3821 7.89773C88.723 7.89773 89.0592 7.92614 89.3906 7.98295C89.7315 8.0303 90.0582 8.10133 90.3707 8.19602V14.8864C89.9825 14.7538 89.5043 14.6544 88.9361 14.5881C88.3679 14.5218 87.8802 14.4886 87.473 14.4886C86.706 14.4886 86.0147 14.6638 85.3991 15.0142C84.7931 15.3551 84.3149 15.8381 83.9645 16.4631C83.6141 17.0786 83.4389 17.803 83.4389 18.6364V30H75.598ZM102.203 30.3977C99.8357 30.3977 97.8092 29.929 96.1236 28.9915C94.438 28.0445 93.1454 26.7282 92.2457 25.0426C91.3461 23.3475 90.8963 21.3826 90.8963 19.1477C90.8963 16.9129 91.3461 14.9527 92.2457 13.267C93.1454 11.572 94.438 10.2557 96.1236 9.31818C97.8092 8.37121 99.8357 7.89773 102.203 7.89773C104.571 7.89773 106.597 8.37121 108.283 9.31818C109.968 10.2557 111.261 11.572 112.161 13.267C113.06 14.9527 113.51 16.9129 113.51 19.1477C113.51 21.3826 113.06 23.3475 112.161 25.0426C111.261 26.7282 109.968 28.0445 108.283 28.9915C106.597 29.929 104.571 30.3977 102.203 30.3977ZM102.26 24.6023C102.923 24.6023 103.496 24.3797 103.979 23.9347C104.462 23.4896 104.836 22.8551 105.101 22.0312C105.366 21.2074 105.499 20.2273 105.499 19.0909C105.499 17.9451 105.366 16.965 105.101 16.1506C104.836 15.3267 104.462 14.6922 103.979 14.2472C103.496 13.8021 102.923 13.5795 102.26 13.5795C101.559 13.5795 100.958 13.8021 100.456 14.2472C99.9541 14.6922 99.5705 15.3267 99.3054 16.1506C99.0402 16.965 98.9077 17.9451 98.9077 19.0909C98.9077 20.2273 99.0402 21.2074 99.3054 22.0312C99.5705 22.8551 99.9541 23.4896 100.456 23.9347C100.958 24.3797 101.559 24.6023 102.26 24.6023ZM123.737 24.8295L123.794 15.5114H124.817L130.101 8.18182H138.908L130.044 19.6023H127.828L123.737 24.8295ZM116.692 30V0.90909H124.533V30H116.692ZM130.158 30L125.158 21.3636L130.271 15.7955L139.135 30H130.158Z" fill="#F6AE7A"/>
</svg>
