<svg width="25" height="25" viewBox="0 0 25 25" fill="none" xmlns="http://www.w3.org/2000/svg">
<mask id="mask0_128_162" style="mask-type:alpha" maskUnits="userSpaceOnUse" x="0" y="0" width="25" height="25">
<rect x="0.592285" y="0.0998535" width="24" height="24" fill="#D9D9D9"/>
</mask>
<g mask="url(#mask0_128_162)">
<path d="M6.59229 14.0999C6.04229 14.0999 5.57145 13.904 5.17979 13.5124C4.78812 13.1207 4.59229 12.6499 4.59229 12.0999C4.59229 11.5499 4.78812 11.079 5.17979 10.6874C5.57145 10.2957 6.04229 10.0999 6.59229 10.0999C7.14229 10.0999 7.61312 10.2957 8.00479 10.6874C8.39645 11.079 8.59229 11.5499 8.59229 12.0999C8.59229 12.6499 8.39645 13.1207 8.00479 13.5124C7.61312 13.904 7.14229 14.0999 6.59229 14.0999ZM12.5923 14.0999C12.0423 14.0999 11.5715 13.904 11.1798 13.5124C10.7881 13.1207 10.5923 12.6499 10.5923 12.0999C10.5923 11.5499 10.7881 11.079 11.1798 10.6874C11.5715 10.2957 12.0423 10.0999 12.5923 10.0999C13.1423 10.0999 13.6131 10.2957 14.0048 10.6874C14.3965 11.079 14.5923 11.5499 14.5923 12.0999C14.5923 12.6499 14.3965 13.1207 14.0048 13.5124C13.6131 13.904 13.1423 14.0999 12.5923 14.0999ZM18.5923 14.0999C18.0423 14.0999 17.5715 13.904 17.1798 13.5124C16.7881 13.1207 16.5923 12.6499 16.5923 12.0999C16.5923 11.5499 16.7881 11.079 17.1798 10.6874C17.5715 10.2957 18.0423 10.0999 18.5923 10.0999C19.1423 10.0999 19.6131 10.2957 20.0048 10.6874C20.3965 11.079 20.5923 11.5499 20.5923 12.0999C20.5923 12.6499 20.3965 13.1207 20.0048 13.5124C19.6131 13.904 19.1423 14.0999 18.5923 14.0999Z" fill="#1C1B1F"/>
</g>
</svg>
